<svg width="1500" height="500" viewBox="0 0 1500 500" fill="none" xmlns="http://www.w3.org/2000/svg">
  <defs>
    <linearGradient id="bg" x1="0" y1="0" x2="1" y2="1">
      <stop offset="0%" stop-color="#0B1020"/>
      <stop offset="100%" stop-color="#111827"/>
    </linearGradient>
    <radialGradient id="glow" cx="0.85" cy="0.2" r="0.7">
      <stop offset="0%" stop-color="#7CE3FF" stop-opacity="0.35"/>
      <stop offset="100%" stop-color="#7CE3FF" stop-opacity="0"/>
    </radialGradient>
  </defs>
  <rect width="1500" height="500" fill="url(#bg)"/>
  <rect width="1500" height="500" fill="url(#glow)"/>

  <g stroke="#1F2937" stroke-width="1" opacity="0.45">
    <line x1="0" y1="0" x2="0" y2="500" />
    <line x1="100" y1="0" x2="100" y2="500" />
    <line x1="200" y1="0" x2="200" y2="500" />
    <line x1="300" y1="0" x2="300" y2="500" />
    <line x1="400" y1="0" x2="400" y2="500" />
    <line x1="500" y1="0" x2="500" y2="500" />
    <line x1="600" y1="0" x2="600" y2="500" />
    <line x1="700" y1="0" x2="700" y2="500" />
    <line x1="800" y1="0" x2="800" y2="500" />
    <line x1="900" y1="0" x2="900" y2="500" />
    <line x1="1000" y1="0" x2="1000" y2="500" />
    <line x1="1100" y1="0" x2="1100" y2="500" />
    <line x1="1200" y1="0" x2="1200" y2="500" />
    <line x1="1300" y1="0" x2="1300" y2="500" />
    <line x1="1400" y1="0" x2="1400" y2="500" />
    <line x1="1500" y1="0" x2="1500" y2="500" />
    <line x1="0" y1="0" x2="1500" y2="0" />
    <line x1="0" y1="70" x2="1500" y2="70" />
    <line x1="0" y1="140" x2="1500" y2="140" />
    <line x1="0" y1="210" x2="1500" y2="210" />
    <line x1="0" y1="280" x2="1500" y2="280" />
    <line x1="0" y1="350" x2="1500" y2="350" />
    <line x1="0" y1="420" x2="1500" y2="420" />
    <line x1="0" y1="490" x2="1500" y2="490" />
  </g>

  <circle cx="1200" cy="100" r="70" stroke="#FF6B4A" stroke-width="3" fill="none"/>
  <circle cx="1200" cy="100" r="35" stroke="#7CE3FF" stroke-width="2" fill="none" opacity="0.8"/>

  <path d="M105 390 C 225 350, 330 420, 480 390" stroke="#FF6B4A" stroke-width="3" fill="none" opacity="0.9"/>

  <text x="120" y="225" fill="#F7F3E8" font-family="Space Grotesk, Avenir Next, Helvetica Neue, Arial, sans-serif" font-size="64" font-weight="700">sigints.club</text>
  <text x="120" y="280" fill="#C7C2B6" font-family="Space Grotesk, Avenir Next, Helvetica Neue, Arial, sans-serif" font-size="28" font-weight="500">Verified, time-sensitive intelligence</text>

  <text x="120" y="465" fill="#C7C2B6" font-family="Space Grotesk, Avenir Next, Helvetica Neue, Arial, sans-serif" font-size="20" letter-spacing="2">SIGINTS.CLUB</text>
  <rect x="120" y="475" width="210" height="2" fill="#FF6B4A"/>
</svg>
