<?xml version="1.0" encoding="UTF-8"?>
<svg width="640" height="640" viewBox="0 0 640 640" fill="none" xmlns="http://www.w3.org/2000/svg">
  <defs>
    <linearGradient id="bg12" x1="0" y1="0" x2="0" y2="1">
      <stop offset="0%" stop-color="hsl(0 55% 18%)"/>
      <stop offset="100%" stop-color="hsl(330 50% 14%)"/>
    </linearGradient>
  </defs>
  <rect width="640" height="640" rx="48" fill="url(#bg12)"/>
  <!-- Radial burst -->
  <g stroke="hsl(350 65% 55%)" stroke-width="1" opacity="0.12">
    <line x1="320" y1="320" x2="320" y2="40"/><line x1="320" y1="320" x2="320" y2="600"/>
    <line x1="320" y1="320" x2="40" y2="320"/><line x1="320" y1="320" x2="600" y2="320"/>
    <line x1="320" y1="320" x2="120" y2="120"/><line x1="320" y1="320" x2="520" y2="520"/>
    <line x1="320" y1="320" x2="520" y2="120"/><line x1="320" y1="320" x2="120" y2="520"/>
    <line x1="320" y1="320" x2="180" y2="60"/><line x1="320" y1="320" x2="460" y2="580"/>
    <line x1="320" y1="320" x2="580" y2="180"/><line x1="320" y1="320" x2="60" y2="460"/>
  </g>
  <!-- Concentric arcs -->
  <circle cx="320" cy="320" r="80" stroke="hsl(20 80% 55%)" stroke-width="2" opacity="0.2" fill="none"/>
  <circle cx="320" cy="320" r="160" stroke="hsl(20 80% 55%)" stroke-width="1.5" opacity="0.12" fill="none"/>
  <circle cx="320" cy="320" r="240" stroke="hsl(20 80% 55%)" stroke-width="1" opacity="0.08" fill="none"/>
  <!-- Center -->
  <circle cx="320" cy="320" r="20" fill="hsl(20 80% 55%)" opacity="0.35"/>
  <circle cx="320" cy="320" r="6" fill="hsl(40 90% 70%)" opacity="0.8"/>
</svg>
