<?xml version="1.0" encoding="UTF-8"?>
<svg width="640" height="640" viewBox="0 0 640 640" fill="none" xmlns="http://www.w3.org/2000/svg">
  <defs>
    <linearGradient id="bg7" x1="0" y1="0" x2="0" y2="1">
      <stop offset="0%" stop-color="hsl(190 60% 12%)"/>
      <stop offset="100%" stop-color="hsl(220 55% 20%)"/>
    </linearGradient>
  </defs>
  <rect width="640" height="640" rx="48" fill="url(#bg7)"/>
  <!-- Sine wave layers -->
  <path d="M0 320 Q80 240 160 320 T320 320 T480 320 T640 320" stroke="hsl(180 70% 50%)" stroke-width="2" opacity="0.4" fill="none"/>
  <path d="M0 320 Q80 200 160 320 T320 320 T480 320 T640 320" stroke="hsl(160 65% 55%)" stroke-width="1.5" opacity="0.3" fill="none"/>
  <path d="M0 320 Q80 280 160 320 T320 320 T480 320 T640 320" stroke="hsl(200 60% 60%)" stroke-width="1" opacity="0.5" fill="none"/>
  <!-- Pulse circles from center -->
  <circle cx="320" cy="320" r="40" stroke="hsl(180 70% 50%)" stroke-width="1.5" opacity="0.4" fill="none"/>
  <circle cx="320" cy="320" r="100" stroke="hsl(180 70% 50%)" stroke-width="1" opacity="0.25" fill="none"/>
  <circle cx="320" cy="320" r="180" stroke="hsl(180 70% 50%)" stroke-width="0.8" opacity="0.15" fill="none"/>
  <circle cx="320" cy="320" r="12" fill="hsl(50 90% 65%)" opacity="0.8"/>
  <!-- Corner dots -->
  <circle cx="80" cy="80" r="4" fill="hsl(180 70% 50%)" opacity="0.3"/>
  <circle cx="560" cy="560" r="4" fill="hsl(180 70% 50%)" opacity="0.3"/>
</svg>
