<?xml version="1.0" encoding="UTF-8"?>
<svg width="640" height="640" viewBox="0 0 640 640" fill="none" xmlns="http://www.w3.org/2000/svg">
  <defs>
    <linearGradient id="bg5" x1="0" y1="0" x2="1" y2="1">
      <stop offset="0%" stop-color="hsl(210 55% 16%)"/>
      <stop offset="100%" stop-color="hsl(230 50% 22%)"/>
    </linearGradient>
  </defs>
  <rect width="640" height="640" rx="48" fill="url(#bg5)"/>
  <!-- Stacked hills -->
  <path d="M0 520 Q120 380 240 440 Q360 500 480 400 Q560 340 640 380 V640 H0Z" fill="hsl(250 50% 40%)" opacity="0.3"/>
  <path d="M0 560 Q100 440 220 500 Q340 560 440 460 Q540 380 640 420 V640 H0Z" fill="hsl(210 55% 45%)" opacity="0.4"/>
  <path d="M0 590 Q160 500 280 560 Q400 620 500 520 Q580 460 640 480 V640 H0Z" fill="hsl(180 50% 35%)" opacity="0.5"/>
  <!-- Soft glow -->
  <circle cx="460" cy="180" r="120" fill="hsl(40 75% 60%)" opacity="0.1"/>
  <circle cx="460" cy="180" r="60" fill="hsl(40 75% 60%)" opacity="0.15"/>
  <!-- Streaks -->
  <line x1="80" y1="200" x2="280" y2="200" stroke="rgba(255,255,255,0.08)" stroke-width="1"/>
  <line x1="360" y1="260" x2="560" y2="260" stroke="rgba(255,255,255,0.06)" stroke-width="1"/>
</svg>
