<?xml version="1.0" encoding="UTF-8"?>
<svg width="640" height="640" viewBox="0 0 640 640" fill="none" xmlns="http://www.w3.org/2000/svg">
  <defs>
    <linearGradient id="bg6" x1="0" y1="0" x2="1" y2="1">
      <stop offset="0%" stop-color="hsl(340 50% 18%)"/>
      <stop offset="100%" stop-color="hsl(20 55% 22%)"/>
    </linearGradient>
  </defs>
  <rect width="640" height="640" rx="48" fill="url(#bg6)"/>
  <!-- Hexagonal mesh -->
  <g stroke="hsl(350 60% 55%)" stroke-width="1" opacity="0.15" fill="none">
    <polygon points="320,80 400,130 400,230 320,280 240,230 240,130"/>
    <polygon points="160,230 240,280 240,380 160,430 80,380 80,280"/>
    <polygon points="480,230 560,280 560,380 480,430 400,380 400,280"/>
    <polygon points="320,380 400,430 400,530 320,580 240,530 240,430"/>
  </g>
  <!-- Accent blobs -->
  <circle cx="320" cy="280" r="50" fill="hsl(20 80% 55%)" opacity="0.2"/>
  <circle cx="160" cy="430" r="35" fill="hsl(280 60% 50%)" opacity="0.15"/>
  <circle cx="480" cy="430" r="40" fill="hsl(160 60% 45%)" opacity="0.15"/>
  <!-- Center glow -->
  <circle cx="320" cy="320" r="160" fill="hsl(350 60% 55%)" opacity="0.06"/>
</svg>
