<?xml version="1.0" encoding="UTF-8"?>
<svg width="640" height="640" viewBox="0 0 640 640" fill="none" xmlns="http://www.w3.org/2000/svg">
  <defs>
    <linearGradient id="bg3" x1="0" y1="0" x2="1" y2="1">
      <stop offset="0%" stop-color="hsl(25 70% 20%)"/>
      <stop offset="100%" stop-color="hsl(45 60% 30%)"/>
    </linearGradient>
  </defs>
  <rect width="640" height="640" rx="48" fill="url(#bg3)"/>
  <!-- Diamond grid -->
  <g stroke="hsl(40 80% 60%)" stroke-width="1" opacity="0.12">
    <line x1="320" y1="0" x2="640" y2="320"/><line x1="320" y1="0" x2="0" y2="320"/>
    <line x1="0" y1="320" x2="320" y2="640"/><line x1="640" y1="320" x2="320" y2="640"/>
    <line x1="160" y1="0" x2="640" y2="480"/><line x1="480" y1="0" x2="0" y2="480"/>
    <line x1="0" y1="160" x2="480" y2="640"/><line x1="640" y1="160" x2="160" y2="640"/>
  </g>
  <!-- Blob accent -->
  <path d="M400 200 Q480 160 500 240 Q520 320 440 340 Q360 360 340 280 Q320 200 400 200Z" fill="hsl(15 85% 55%)" opacity="0.3"/>
  <path d="M180 400 Q240 360 260 420 Q280 480 220 500 Q160 520 140 460 Q120 400 180 400Z" fill="hsl(280 60% 55%)" opacity="0.2"/>
  <!-- Scatter dots -->
  <circle cx="100" cy="100" r="4" fill="hsl(40 90% 70%)" opacity="0.6"/>
  <circle cx="540" cy="540" r="5" fill="hsl(40 90% 70%)" opacity="0.5"/>
  <circle cx="500" cy="80" r="3" fill="hsl(40 90% 70%)" opacity="0.4"/>
</svg>
