<?xml version="1.0" encoding="UTF-8"?>
<svg width="640" height="640" viewBox="0 0 640 640" fill="none" xmlns="http://www.w3.org/2000/svg">
  <defs>
    <linearGradient id="bg4" x1="0" y1="1" x2="1" y2="0">
      <stop offset="0%" stop-color="hsl(270 50% 15%)"/>
      <stop offset="100%" stop-color="hsl(310 45% 25%)"/>
    </linearGradient>
  </defs>
  <rect width="640" height="640" rx="48" fill="url(#bg4)"/>
  <!-- Aurora bands -->
  <path d="M0 200 C160 140 320 260 480 180 S640 220 640 220 V300 C480 260 320 340 160 280 S0 260 0 260Z" fill="hsl(280 60% 55%)" opacity="0.15"/>
  <path d="M0 260 C200 200 340 320 520 240 S640 280 640 280 V360 C500 320 340 400 180 340 S0 320 0 320Z" fill="hsl(200 70% 55%)" opacity="0.2"/>
  <path d="M0 320 C180 270 380 380 540 300 S640 340 640 340 V420 C520 380 360 460 160 400 S0 380 0 380Z" fill="hsl(160 65% 50%)" opacity="0.25"/>
  <path d="M0 400 C160 350 300 440 500 370 S640 400 640 400 V480 C480 440 320 520 140 460 S0 440 0 440Z" fill="hsl(120 55% 45%)" opacity="0.2"/>
  <!-- Stars -->
  <circle cx="100" cy="100" r="2" fill="#fff" opacity="0.5"/>
  <circle cx="300" cy="80" r="1.5" fill="#fff" opacity="0.4"/>
  <circle cx="520" cy="120" r="2.5" fill="#fff" opacity="0.6"/>
  <circle cx="440" cy="60" r="1.5" fill="#fff" opacity="0.3"/>
  <circle cx="200" cy="560" r="2" fill="#fff" opacity="0.4"/>
</svg>
