<?xml version="1.0" encoding="UTF-8"?>
<svg width="640" height="640" viewBox="0 0 640 640" fill="none" xmlns="http://www.w3.org/2000/svg">
  <defs>
    <linearGradient id="bg14" x1="0" y1="1" x2="1" y2="0">
      <stop offset="0%" stop-color="hsl(230 55% 15%)"/>
      <stop offset="100%" stop-color="hsl(260 50% 22%)"/>
    </linearGradient>
  </defs>
  <rect width="640" height="640" rx="48" fill="url(#bg14)"/>
  <!-- Scattered rectangles -->
  <rect x="80" y="120" width="120" height="80" rx="12" fill="hsl(260 55% 50%)" opacity="0.12" transform="rotate(-8 140 160)"/>
  <rect x="400" y="80" width="140" height="90" rx="14" fill="hsl(200 65% 50%)" opacity="0.1" transform="rotate(5 470 125)"/>
  <rect x="260" y="300" width="160" height="100" rx="16" fill="hsl(170 60% 45%)" opacity="0.12" transform="rotate(-3 340 350)"/>
  <rect x="60" y="420" width="110" height="120" rx="12" fill="hsl(340 60% 50%)" opacity="0.1" transform="rotate(6 115 480)"/>
  <rect x="440" y="380" width="130" height="140" rx="14" fill="hsl(30 70% 55%)" opacity="0.1" transform="rotate(-4 505 450)"/>
  <rect x="200" y="500" width="100" height="70" rx="10" fill="hsl(290 55% 50%)" opacity="0.08" transform="rotate(8 250 535)"/>
  <!-- Cross-hatch accent -->
  <line x1="0" y1="320" x2="640" y2="320" stroke="rgba(255,255,255,0.04)" stroke-width="1"/>
  <line x1="320" y1="0" x2="320" y2="640" stroke="rgba(255,255,255,0.04)" stroke-width="1"/>
</svg>
