<svg width="520" height="360" viewBox="0 0 520 360" fill="none" xmlns="http://www.w3.org/2000/svg">
  <defs>
    <linearGradient id="tvA" x1="0" y1="0" x2="1" y2="1">
      <stop offset="0%" stop-color="#FF6B35"/>
      <stop offset="100%" stop-color="#F2B807"/>
    </linearGradient>
    <linearGradient id="tvB" x1="1" y1="0" x2="0" y2="1">
      <stop offset="0%" stop-color="#1DB0A6"/>
      <stop offset="100%" stop-color="#0B1F2A"/>
    </linearGradient>
  </defs>
  <rect x="24" y="24" width="472" height="312" rx="32" fill="#FFFFFF" stroke="#E2D8CC"/>
  <path d="M260 80 C310 90, 360 100, 392 118 V196 C392 240, 334 280, 260 300 C186 280, 128 240, 128 196 V118 C160 100, 210 90, 260 80 Z" fill="url(#tvA)" opacity="0.92"/>
  <path d="M260 80 C310 90, 360 100, 392 118 V196 C392 240, 334 280, 260 300" fill="url(#tvB)" opacity="0.9"/>
  <path d="M196 188 L238 228 L326 144" stroke="#FFFFFF" stroke-width="12" stroke-linecap="round" stroke-linejoin="round"/>
  <circle cx="150" cy="110" r="10" fill="#FF6B35"/>
  <circle cx="370" cy="110" r="10" fill="#1DB0A6"/>
  <circle cx="120" cy="250" r="6" fill="#F2B807"/>
  <circle cx="400" cy="250" r="6" fill="#0B1F2A"/>
</svg>
